<svg xmlns="http://www.w3.org/2000/svg" viewBox="0 0 640 320" fill="none">
  <defs>
    <linearGradient id="gold" x1="0%" y1="0%" x2="100%" y2="0%">
      <stop offset="0%" stop-color="#B8860B"/>
      <stop offset="50%" stop-color="#DAA520"/>
      <stop offset="100%" stop-color="#B8860B"/>
    </linearGradient>
    <linearGradient id="goldL" x1="100%" y1="0%" x2="0%" y2="50%">
      <stop offset="0%" stop-color="#DAA520"/>
      <stop offset="100%" stop-color="#8B6914"/>
    </linearGradient>
    <linearGradient id="goldR" x1="0%" y1="0%" x2="100%" y2="50%">
      <stop offset="0%" stop-color="#DAA520"/>
      <stop offset="100%" stop-color="#8B6914"/>
    </linearGradient>
  </defs>

  <!-- Left wing — outer gold feathers -->
  <path d="M320 140 L260 120 L180 85 L100 55 L30 30 L60 60 L20 45 L70 80 L35 68 L95 100 L65 92 L130 118 L105 112 L175 132 L155 128 L230 142 L215 140 L280 148" fill="url(#goldL)" opacity="0.95"/>
  <!-- Left wing — inner navy -->
  <path d="M320 148 L270 135 L200 112 L140 95 L90 78 L130 100 L100 92 L160 115 L140 110 L210 130 L195 126 L270 142 L260 140 L310 148" fill="#1B2A4A"/>

  <!-- Right wing — outer gold feathers -->
  <path d="M320 140 L380 120 L460 85 L540 55 L610 30 L580 60 L620 45 L570 80 L605 68 L545 100 L575 92 L510 118 L535 112 L465 132 L485 128 L410 142 L425 140 L360 148" fill="url(#goldR)" opacity="0.95"/>
  <!-- Right wing — inner navy -->
  <path d="M320 148 L370 135 L440 112 L500 95 L550 78 L510 100 L540 92 L480 115 L500 110 L430 130 L445 126 L370 142 L380 140 L330 148" fill="#1B2A4A"/>

  <!-- Eagle head -->
  <path d="M300 115 Q305 90 320 82 Q335 90 340 115 L335 128 Q320 135 305 128 Z" fill="#1B2A4A"/>
  <!-- Beak -->
  <path d="M314 108 L320 95 L326 108 Z" fill="#DAA520"/>
  <!-- Eyes -->
  <circle cx="311" cy="102" r="2.5" fill="#F0E68C"/>
  <circle cx="329" cy="102" r="2.5" fill="#F0E68C"/>

  <!-- Eagle body (navy) -->
  <path d="M280 148 Q300 158 320 165 Q340 158 360 148 L350 195 Q335 215 320 220 Q305 215 290 195 Z" fill="#1B2A4A"/>

  <!-- ARES text integrated into body -->
  <text x="320" y="192" text-anchor="middle" font-family="'Georgia','Times New Roman',serif" font-weight="bold" font-size="30" fill="#DAA520" letter-spacing="6">ARES</text>

  <!-- Tail feathers -->
  <path d="M305 200 L298 240 L310 225 L320 248 L330 225 L342 240 L335 200" fill="#1B2A4A" opacity="0.85"/>
  <path d="M310 210 L305 235 L315 222 L320 240 L325 222 L335 235 L330 210" fill="#DAA520" opacity="0.3"/>
</svg>
